<?xml version="1.0" encoding="UTF-8"?>
<svg width="700pt" height="700pt" version="1.1" viewBox="0 0 700 700" xmlns="http://www.w3.org/2000/svg" xmlns:xlink="http://www.w3.org/1999/xlink">
 <g>
  <path d="m447.11 89.039c-3.5781-4.2891-8.793-6.875-14.371-7.125-5.5781-0.25391-11.008 1.8516-14.957 5.8008-3.9453 3.9492-6.0547 9.375-5.8008 14.953 0.25391 5.582 2.8398 10.797 7.1289 14.371l142.86 143.02h-472.19c-6.8633 0.36719-13.055 4.2383-16.383 10.25-3.332 6.0078-3.332 13.309 0 19.32 3.3281 6.0117 9.5195 9.8828 16.383 10.246h472.19l-143.08 142.86c-3.6016 3.7734-5.6094 8.7852-5.6094 14s2.0078 10.23 5.6094 14c3.7109 3.7227 8.7461 5.8125 14 5.8125s10.293-2.0898 14-5.8125l176.96-176.96v0.003906c3.8047-3.6641 5.957-8.7188 5.957-14 0-5.2852-2.1523-10.34-5.957-14z"/>
 </g>
</svg>
