<?xml version="1.0" encoding="UTF-8"?>
<svg fill="#ffffff" width="700pt" height="700pt" version="1.1" viewBox="0 0 700 700" xmlns="http://www.w3.org/2000/svg" xmlns:xlink="http://www.w3.org/1999/xlink">
 <g>
  <path d="m176.4 39.199c-36.98 0-67.199 30.219-67.199 67.199 0 36.984 30.219 67.203 67.199 67.203 36.984 0 67.203-30.219 67.203-67.203 0-36.98-30.219-67.199-67.203-67.199zm0 22.398c24.875 0 44.801 19.926 44.801 44.801s-19.926 44.801-44.801 44.801-44.801-19.926-44.801-44.801 19.926-44.801 44.801-44.801zm291.2 123.2c-35.812 0-60.152 15.227-78.398 32.727v-10.324c0-5.8633-5.3359-11.199-11.199-11.199h-89.602c-5.8633 0-11.199 5.3359-11.199 11.199v302.4c0 5.8633 5.3359 11.199 11.199 11.199h95.199c5.8633 0 11.199-5.3359 11.199-11.199v-168c0-14.176 4.4688-27.609 11.023-36.75 6.5625-9.1406 14.488-13.648 22.578-13.648h11.199c8.0898 0 16.016 4.5078 22.574 13.648 6.5625 9.1445 11.027 22.578 11.027 36.754v168c0 5.8633 5.3359 11.199 11.199 11.199h95.199c5.8633 0 11.199-5.3359 11.199-11.199l0.003906-196c0-37.336-7-69.75-26.949-93.102-19.953-23.352-52.027-35.699-96.25-35.699zm-337.05 11.203c-5.5078 0.51953-10.176 5.668-10.152 11.199v302.4c0 5.8633 5.3359 11.199 11.199 11.199h95.199c5.8633 0 11.199-5.3359 11.199-11.199v-302.4c0-5.8633-5.3359-11.199-11.199-11.199h-96.25zm337.05 11.199c40.176 0 64.152 10.328 79.102 27.824 14.945 17.5 21.695 44.113 21.695 78.578v184.8h-72.801v-156.8c0.003906-18.711-5.5859-36.266-15.223-49.703-9.6367-13.434-24.047-23.098-40.773-23.098h-11.199c-16.73 0-31.137 9.6641-40.773 23.102-9.6406 13.434-15.23 30.988-15.23 49.699v67.199h-6.6484c-5.8633 0.27344-10.953 5.8594-10.676 11.727 0.27344 5.8633 5.8594 10.949 11.727 10.672h5.6016v22.398h-6.6484c-5.8633 0.27344-10.953 5.8594-10.676 11.727 0.26953 5.8672 5.8555 10.953 11.723 10.676h5.6016v22.398h-72.801v-280h67.199v28c-0.003906 4.6055 3.1445 9.0508 7.4922 10.574 4.3477 1.5273 9.582 0.027344 12.457-3.5742 18.805-23.441 38.84-46.199 80.852-46.199zm-324.8 11.199h72.801v190.4h-6.6484c-5.8633 0.27344-10.953 5.8594-10.676 11.727 0.26953 5.8672 5.8594 10.953 11.723 10.676h5.6016v22.398h-6.6484c-5.8633 0.27344-10.953 5.8594-10.676 11.727 0.26953 5.8672 5.8594 10.953 11.723 10.676h5.6016v22.398h-72.801z"/>
 </g>
</svg>
