<?xml version="1.0" encoding="UTF-8"?>
<svg fill="#ffffff" width="700pt" height="700pt" version="1.1" viewBox="0 0 700 700" xmlns="http://www.w3.org/2000/svg" xmlns:xlink="http://www.w3.org/1999/xlink">
 <g>
  <path d="m120.4 112c-12.121 0-22.398 10.281-22.398 22.398v291.2c0 12.117 10.281 22.398 22.398 22.398h459.2c12.121 0 22.398-10.281 22.398-22.398v-291.2c0-12.121-10.281-22.398-22.398-22.398zm33.25 33.602h392.7l-196.35 168.35-196.35-168.35zm-22.051 25.023 118.12 101.32-118.12 118.12zm436.8 0v219.45l-118.12-118.12zm-293.12 123.38 63.875 54.602c3.0352 2.5664 6.8789 3.9727 10.852 3.9727s7.8164-1.4062 10.852-3.9727l63.875-54.602 120.4 120.4h-390.25z"/>
 </g>
</svg>
